<?xml version="1.0" standalone="no"?><svg xmlns="http://www.w3.org/2000/svg" viewBox="0 0 1440 320"><path fill="#ffffff" fill-opacity="1" d="M0,128L10.4,128C20.9,128,42,128,63,106.7C83.5,85,104,43,125,48C146.1,53,167,107,188,144C208.7,181,230,203,250,229.3C271.3,256,292,288,313,288C333.9,288,355,256,376,202.7C396.5,149,417,75,438,85.3C459.1,96,480,192,501,245.3C521.7,299,543,309,563,314.7C584.3,320,605,320,626,272C647,224,668,128,689,90.7C709.6,53,730,75,751,106.7C772.2,139,793,181,814,170.7C834.8,160,856,96,877,69.3C897.4,43,918,53,939,69.3C960,85,981,107,1002,117.3C1022.6,128,1043,128,1064,149.3C1085.2,171,1106,213,1127,208C1147.8,203,1169,149,1190,144C1210.4,139,1231,181,1252,170.7C1273,160,1294,96,1315,85.3C1335.7,75,1357,117,1377,165.3C1398.3,213,1419,267,1430,293.3L1440,320L1440,320L1429.6,320C1419.1,320,1398,320,1377,320C1356.5,320,1336,320,1315,320C1293.9,320,1273,320,1252,320C1231.3,320,1210,320,1190,320C1168.7,320,1148,320,1127,320C1106.1,320,1085,320,1064,320C1043.5,320,1023,320,1002,320C980.9,320,960,320,939,320C918.3,320,897,320,877,320C855.7,320,835,320,814,320C793,320,772,320,751,320C730.4,320,710,320,689,320C667.8,320,647,320,626,320C605.2,320,584,320,563,320C542.6,320,522,320,501,320C480,320,459,320,438,320C417.4,320,397,320,376,320C354.8,320,334,320,313,320C292.2,320,271,320,250,320C229.6,320,209,320,188,320C167,320,146,320,125,320C104.3,320,83,320,63,320C41.7,320,21,320,10,320L0,320Z"></path></svg>